<?xml version="1.0" standalone="no"?>
<!DOCTYPE svg PUBLIC "-//W3C//DTD SVG 20010904//EN"
 "http://www.w3.org/TR/2001/REC-SVG-20010904/DTD/svg10.dtd">
<svg version="1.0" xmlns="http://www.w3.org/2000/svg"
 width="2112.000000pt" height="2012.000000pt" viewBox="0 0 2112.000000 2012.000000"
 preserveAspectRatio="xMidYMid meet">

<g transform="translate(0.000000,2012.000000) scale(0.100000,-0.100000)"
fill="#000000" stroke="none">
<path d="M13571 17615 c-52 -24 -98 -42 -102 -39 -4 2 -13 -4 -20 -13 -12 -14
-11 -15 11 -8 22 7 23 6 12 -8 -8 -9 -19 -14 -27 -11 -30 12 -273 -232 -429
-430 -44 -56 -171 -212 -283 -347 -415 -504 -511 -593 -925 -851 -308 -192
-813 -384 -1413 -539 -38 -9 -104 -27 -145 -38 -41 -12 -198 -46 -349 -77
-232 -47 -299 -63 -319 -79 -1 -1 20 -25 48 -53 70 -71 84 -108 75 -197 -7
-74 3 -81 20 -12 5 22 16 42 23 45 9 3 12 -23 13 -107 1 -61 2 -117 2 -123 3
-42 -14 -180 -25 -204 l-13 -28 -6 30 -7 29 -1 -32 c-2 -46 -23 -133 -33 -133
-4 0 -8 6 -8 13 -1 18 -40 -33 -40 -52 0 -24 -20 -41 -46 -41 -31 0 -37 -26
-29 -128 9 -101 23 -152 24 -84 1 23 6 42 12 42 5 0 8 -3 6 -7 -7 -12 17 -119
47 -206 14 -42 26 -87 26 -98 0 -11 6 -32 14 -47 7 -15 27 -81 44 -147 17 -66
38 -147 47 -180 45 -164 164 -628 185 -723 11 -45 30 -126 44 -180 14 -53 30
-124 36 -157 7 -33 23 -101 36 -151 43 -165 78 -368 87 -509 2 -32 4 -17 6 40
l3 90 14 -65 c19 -92 18 -159 -2 -167 -9 -3 -24 -24 -34 -47 -10 -23 -28 -52
-40 -66 -27 -32 -417 -616 -436 -653 -14 -27 -15 -27 -45 -12 -29 16 -118 98
-389 361 -74 72 -175 169 -223 215 -72 68 -87 87 -83 105 3 12 10 58 16 101
16 125 53 289 60 267 4 -10 12 47 19 126 7 80 19 170 27 200 20 76 32 250 45
625 10 296 8 1269 -2 1279 -2 3 -37 12 -77 20 -93 19 -167 62 -257 148 -80 75
-120 142 -156 258 -18 62 -22 96 -21 194 1 110 2 121 26 154 27 38 22 72 -12
72 -71 0 -1051 -190 -1447 -281 -1026 -234 -1708 -472 -2380 -828 -335 -178
-730 -496 -1020 -822 -133 -149 -179 -214 -280 -391 -128 -222 -167 -382 -120
-493 9 -23 21 -35 34 -35 12 0 23 -10 29 -29 14 -39 67 -54 178 -52 118 3 175
21 242 78 31 26 65 55 76 63 10 8 33 26 50 41 189 155 586 370 951 514 566
225 1189 375 1725 416 366 27 597 -52 835 -287 114 -113 250 -312 285 -420 7
-21 24 -61 38 -88 14 -28 27 -72 30 -98 2 -26 8 -45 13 -43 11 8 22 -13 30
-60 4 -22 14 -76 22 -120 8 -44 18 -114 22 -155 l8 -75 12 40 11 40 8 -80 c20
-196 24 -284 21 -490 -3 -146 -9 -242 -18 -285 -8 -36 -22 -99 -31 -140 -19
-90 -24 -107 -87 -278 -153 -413 -560 -1134 -1051 -1862 -99 -146 -198 -290
-221 -321 -23 -32 -56 -77 -74 -100 -18 -24 -41 -55 -53 -69 -30 -35 -82 -108
-104 -144 -10 -17 -34 -48 -52 -69 -19 -20 -34 -41 -34 -47 0 -5 -28 -42 -63
-82 -34 -40 -71 -86 -81 -103 -11 -16 -37 -51 -58 -76 -21 -25 -38 -51 -38
-57 0 -7 -4 -12 -10 -12 -5 0 -21 -17 -35 -37 -14 -21 -48 -65 -76 -98 -28
-33 -62 -85 -76 -115 -15 -30 -38 -69 -52 -86 -14 -17 -42 -50 -61 -74 -19
-23 -50 -59 -68 -79 -17 -20 -49 -58 -70 -86 -130 -170 -188 -248 -197 -265
-18 -30 -37 -50 -49 -50 -6 0 -69 38 -139 85 -70 47 -132 85 -137 85 -5 0 -63
-43 -129 -96 l-121 -95 0 -126 0 -125 -33 -31 c-37 -37 -364 -300 -378 -305
-5 -2 -44 22 -88 52 -43 31 -82 56 -85 56 -3 0 -74 -55 -157 -122 l-152 -121
7 -231 c4 -127 11 -237 16 -246 4 -8 164 -116 354 -240 191 -124 444 -289 564
-367 119 -79 223 -143 230 -143 7 0 61 41 120 90 125 106 120 95 122 300 l1
135 145 120 c81 66 156 128 168 137 22 16 25 15 135 -57 l114 -73 108 86 108
87 1 50 c1 74 28 557 32 559 2 1 26 16 53 34 28 17 60 39 71 48 12 10 37 27
56 38 59 36 168 117 245 183 21 18 41 33 45 33 4 0 27 17 51 38 74 63 139 116
161 132 12 8 35 27 51 42 17 15 33 28 38 28 14 0 112 71 157 115 81 78 262
240 278 249 10 5 23 18 31 29 8 11 23 27 34 36 11 9 39 34 62 56 49 45 51 48
97 94 477 481 1552 1543 1663 1643 268 243 408 345 529 386 39 13 83 17 191
16 159 -1 251 -19 407 -80 186 -72 324 -163 488 -320 163 -158 219 -279 208
-457 -5 -72 -11 -93 -53 -176 -26 -52 -52 -99 -57 -105 -5 -6 -32 -46 -61 -88
-29 -42 -88 -130 -132 -195 -44 -65 -136 -194 -204 -288 -147 -202 -182 -250
-235 -330 -22 -33 -42 -62 -46 -65 -4 -3 -14 -18 -23 -35 -8 -16 -25 -41 -37
-55 -12 -14 -31 -42 -41 -62 -11 -21 -32 -52 -47 -70 -16 -18 -34 -53 -41 -78
-7 -25 -23 -61 -36 -80 -26 -42 -45 -120 -45 -191 0 -48 3 -54 55 -107 l56
-57 162 0 c153 0 165 2 222 27 58 25 169 70 269 108 27 11 65 30 85 44 20 13
47 27 61 31 14 4 41 19 60 34 19 14 59 37 88 50 28 14 52 28 52 32 0 8 57 42
62 38 3 -2 106 66 165 107 12 9 35 23 52 32 16 10 43 28 58 42 15 14 41 32 56
40 16 8 38 24 50 36 12 11 32 26 44 33 12 6 42 29 67 50 25 22 54 42 65 46 11
3 23 14 26 24 3 10 18 24 33 32 26 13 78 55 166 134 21 19 42 35 46 35 26 0
584 558 635 636 9 13 45 61 81 105 36 45 75 101 87 125 11 24 25 44 29 44 5 0
22 30 39 67 17 37 33 70 37 73 4 3 14 18 22 34 12 23 15 68 15 205 0 227 -9
304 -41 341 -7 9 -22 44 -33 79 -11 35 -28 73 -38 85 -11 11 -28 41 -38 66
-10 25 -25 52 -34 60 -9 8 -23 29 -31 45 -58 117 -154 229 -445 521 -237 237
-355 343 -705 634 -469 390 -631 573 -711 804 -24 68 -29 97 -29 183 0 87 -2
101 -15 97 -13 -5 -15 10 -15 99 0 105 5 141 20 132 4 -2 10 48 13 113 4 64
14 144 22 177 19 73 74 252 85 280 5 11 26 70 48 130 56 152 93 239 163 385
52 107 81 160 162 295 11 18 133 201 167 249 131 189 356 442 735 826 280 284
411 428 589 645 27 33 54 65 61 70 20 19 381 469 476 595 140 187 184 248 313
441 97 145 116 175 116 187 0 6 5 12 11 12 5 0 22 26 36 58 15 31 34 62 43 69
17 12 42 71 54 126 4 15 11 27 17 27 6 0 9 -7 5 -15 -3 -8 -3 -15 -1 -15 8 0
35 71 35 91 0 11 4 19 9 19 5 0 7 8 4 19 -2 10 5 36 16 57 19 34 21 22 4 -23
-3 -7 -1 -13 4 -13 11 0 56 137 49 149 -3 4 3 26 13 47 10 22 21 46 25 54 3 8
4 -5 1 -30 -4 -39 -4 -42 6 -20 12 29 30 311 23 385 -8 105 -14 120 -44 117
-3 0 -15 13 -25 29 -11 16 -31 32 -45 36 -14 3 -34 12 -44 19 -19 13 -19 13 0
21 35 13 -23 21 -161 21 l-130 0 -94 -43z m-8411 -10852 c49 -32 92 -64 94
-71 3 -6 -8 -35 -24 -62 -17 -28 -30 -53 -30 -56 0 -2 -11 -21 -24 -42 -13
-20 -29 -55 -36 -77 -6 -22 -20 -58 -30 -80 -39 -89 -52 -227 -26 -289 22 -53
73 -94 151 -121 23 -8 42 9 -174 -164 l-142 -114 81 -51 c44 -28 93 -59 110
-68 16 -9 30 -21 30 -26 0 -13 -122 -112 -138 -112 -7 0 -28 11 -45 24 -25 18
-758 495 -864 562 -13 8 -23 19 -23 24 0 7 89 80 128 104 8 5 43 -13 98 -49
l84 -57 33 25 c117 90 663 530 665 537 2 4 -33 30 -77 56 -45 27 -80 54 -78
60 3 15 118 103 135 104 7 0 53 -26 102 -57z"/>
<path d="M8855 17610 c-84 -9 -136 -21 -233 -54 -218 -75 -392 -205 -541 -406
-84 -113 -135 -220 -172 -365 -28 -107 -31 -137 -32 -280 -2 -140 1 -171 22
-250 13 -49 34 -112 46 -140 12 -27 27 -62 33 -77 43 -105 227 -325 348 -416
82 -61 225 -133 324 -162 41 -12 95 -29 120 -37 129 -41 156 -45 248 -40 135
6 134 23 -1 19 -62 -2 -128 1 -147 6 -27 8 8 10 143 11 249 1 370 33 554 147
102 63 273 233 341 339 28 44 56 86 62 92 14 16 70 157 70 175 0 8 4 18 9 24
16 16 31 147 32 276 1 84 4 110 9 83 l7 -40 2 43 c0 23 -3 42 -9 42 -5 0 -10
24 -10 54 0 30 -10 94 -23 144 -21 80 -22 90 -8 100 13 9 12 11 -10 11 -21 1
-28 8 -38 41 -6 22 -35 77 -63 122 -166 271 -433 462 -728 523 -84 17 -266 25
-355 15z"/>
<path d="M14060 17580 c0 -5 5 -10 11 -10 5 0 7 5 4 10 -3 6 -8 10 -11 10 -2
0 -4 -4 -4 -10z"/>
<path d="M14141 17314 c0 -11 3 -14 6 -6 3 7 2 16 -1 19 -3 4 -6 -2 -5 -13z"/>
<path d="M15626 13312 l-248 -167 6 -270 c7 -342 35 -1459 39 -1545 l2 -65 70
-20 c99 -28 140 -47 123 -55 -7 -4 -46 -13 -86 -20 -79 -14 -84 -18 -100 -70
-24 -78 -330 -1026 -538 -1666 -63 -194 -114 -356 -114 -360 0 -5 16 -20 35
-33 19 -12 75 -53 125 -91 l91 -67 67 17 c137 34 163 40 182 40 11 0 82 -46
157 -102 76 -55 169 -124 206 -151 37 -28 66 -55 64 -61 -2 -6 -17 -49 -33
-95 l-28 -85 34 -28 c19 -15 90 -68 157 -118 l123 -90 164 50 c90 27 194 60
232 72 l67 23 59 185 c32 102 138 426 234 720 331 1010 407 1251 397 1261 -36
36 -240 179 -250 175 -17 -7 -302 -76 -312 -76 -12 0 -345 239 -349 249 -2 5
13 57 32 115 20 59 36 116 36 129 -1 15 -17 34 -56 60 -30 21 -54 42 -52 47 4
11 257 190 268 190 5 0 10 -32 12 -72 l3 -72 188 -56 188 -57 42 32 c23 18
111 83 195 145 l154 114 -6 115 c-3 64 -11 319 -16 566 -14 619 -16 675 -26
685 -5 4 -56 22 -114 39 -58 17 -119 36 -137 42 -30 9 -40 4 -177 -84 l-145
-94 -78 27 -78 28 -7 195 c-4 108 -8 228 -10 268 l-3 71 -70 23 c-38 13 -155
51 -260 85 -104 34 -194 63 -200 65 -5 2 -122 -71 -259 -163z m-29 -266 c43
-13 137 -41 208 -61 72 -21 138 -42 148 -47 14 -7 17 -24 17 -112 l0 -104 -77
-7 c-183 -16 -223 -50 -223 -188 0 -76 -17 -65 190 -126 74 -22 250 -74 390
-117 140 -42 262 -78 270 -81 13 -3 15 15 12 131 l-3 134 33 -8 c18 -5 56 -15
83 -23 l50 -13 7 -60 c7 -71 32 -1064 26 -1070 -7 -6 -162 48 -169 59 -4 5 -8
53 -8 105 -1 53 -2 97 -4 98 -1 1 -186 58 -412 127 -225 69 -419 128 -429 133
-18 7 -19 3 -13 -75 11 -135 48 -188 194 -277 l68 -41 3 -80 3 -79 -51 -10
c-47 -10 -60 -7 -188 34 -75 24 -150 48 -167 51 l-30 7 -7 269 c-4 149 -14
524 -23 835 -8 311 -15 577 -15 593 0 34 14 35 117 3z m5 -2062 c35 -25 65
-47 67 -49 1 -2 -16 -61 -39 -130 -23 -70 -38 -130 -34 -135 5 -4 142 -103
304 -220 162 -117 318 -230 345 -250 28 -20 55 -40 61 -43 8 -4 25 34 49 111
20 64 41 121 45 125 10 11 150 -91 145 -106 -74 -237 -295 -921 -300 -925 -6
-7 -145 101 -145 113 0 7 7 29 16 50 13 31 13 40 2 50 -24 22 -290 216 -302
221 -9 3 -37 -73 -96 -267 -8 -26 0 -33 142 -139 83 -61 156 -114 162 -116 7
-3 17 15 25 46 7 27 17 50 23 50 18 0 138 -93 138 -107 0 -14 -75 -253 -191
-608 -34 -104 -68 -211 -76 -238 -10 -31 -19 -45 -26 -40 -7 4 -39 27 -72 52
-33 25 -62 46 -63 47 -2 1 10 46 28 100 l31 97 -23 22 c-32 31 -699 518 -702
513 -2 -1 -13 -36 -25 -76 -12 -40 -26 -84 -31 -98 l-10 -24 -70 56 c-38 31
-70 62 -70 69 0 7 51 170 114 361 63 192 124 383 136 424 12 41 26 79 31 84 7
8 76 -38 142 -94 4 -3 -2 -32 -12 -63 l-20 -56 67 -47 c82 -58 156 -116 160
-126 13 -29 34 10 77 142 26 83 46 152 44 153 -2 2 -57 43 -122 92 -127 96
-130 96 -143 27 -3 -18 -10 -34 -14 -37 -5 -3 -28 12 -53 32 -24 21 -56 47
-71 58 l-28 20 36 105 c19 58 87 266 151 463 64 196 120 357 125 357 6 0 38
-21 72 -46z"/>
<path d="M1962 12118 c-5 -7 -13 -38 -17 -68 -7 -54 -100 -528 -150 -765 -14
-66 -39 -185 -55 -265 -16 -80 -42 -208 -58 -285 -17 -77 -44 -214 -62 -305
-17 -91 -40 -208 -50 -260 -10 -52 -22 -122 -26 -154 -4 -32 -15 -91 -26 -130
-10 -39 -29 -134 -43 -211 -13 -77 -31 -167 -40 -200 -28 -105 -43 -249 -31
-287 10 -31 14 -33 71 -41 88 -11 141 -22 225 -46 41 -12 125 -28 187 -36 61
-7 120 -18 130 -23 30 -16 153 -41 258 -53 55 -6 114 -17 130 -24 17 -6 62
-18 100 -25 66 -12 205 -43 340 -75 33 -8 76 -14 95 -15 20 0 92 -14 160 -31
69 -17 134 -33 145 -35 11 -3 50 -7 88 -11 37 -3 67 -9 67 -13 0 -4 -57 -28
-127 -54 -71 -25 -135 -50 -143 -55 -8 -4 -33 -59 -56 -121 -51 -139 -52 -142
-100 -159 -21 -7 -129 -47 -239 -88 l-199 -74 -18 23 c-10 13 -35 46 -55 75
-46 62 -54 67 -96 48 -17 -8 -95 -38 -172 -66 -77 -28 -143 -54 -147 -57 -9
-9 -116 -384 -124 -434 -6 -36 -2 -43 132 -205 129 -157 427 -520 607 -742 43
-53 112 -136 152 -186 261 -320 338 -414 428 -528 119 -149 95 -143 279 -70
l116 46 27 76 c14 42 40 114 56 161 l30 85 197 77 c227 89 194 94 303 -43 l70
-87 102 39 c159 61 159 61 184 132 12 34 54 148 93 252 40 105 77 206 83 226
l10 35 -224 275 c-368 449 -530 647 -604 738 -38 48 -178 219 -310 380 -132
161 -242 297 -243 302 -2 5 7 5 22 -1 15 -5 40 -11 56 -12 17 -1 30 -5 30 -9
0 -11 72 -28 165 -39 108 -13 231 -38 265 -55 14 -7 59 -16 100 -20 88 -8 183
-28 263 -55 31 -11 81 -20 110 -20 59 -1 128 -14 172 -34 79 -37 112 -46 193
-56 48 -6 96 -15 107 -20 62 -30 121 -42 216 -47 59 -3 118 -3 132 1 35 8 54
42 61 111 4 33 20 112 36 175 16 63 32 142 35 175 4 33 17 103 30 155 13 52
31 142 39 200 9 58 23 137 31 175 9 39 29 144 45 235 16 91 34 190 40 220 7
30 14 75 16 100 3 24 36 200 75 390 183 897 206 1017 192 1031 -10 10 -999
212 -2123 433 -517 102 -916 182 -1107 222 -309 65 -573 114 -609 114 -17 0
-36 -6 -42 -12z m1452 -3525 c46 -60 367 -452 488 -597 37 -45 68 -86 68 -93
0 -6 -37 -24 -82 -39 l-82 -27 -37 42 c-20 22 -40 41 -45 41 -8 0 -277 -100
-282 -105 -2 -1 3 -9 10 -16 7 -8 49 -59 92 -114 43 -55 82 -104 86 -108 5 -5
64 12 132 37 68 25 130 46 136 46 25 0 23 30 -2 61 -15 17 -25 36 -23 42 3 11
129 56 157 57 8 0 47 -39 85 -87 39 -48 177 -217 307 -377 131 -159 235 -292
232 -295 -6 -7 -122 -51 -150 -58 -18 -4 -36 13 -100 96 -43 56 -83 101 -88
101 -10 0 -148 -52 -436 -165 -107 -42 -239 -93 -292 -113 -54 -20 -98 -41
-98 -47 0 -5 34 -50 75 -100 41 -49 75 -95 75 -101 0 -6 -28 -21 -62 -34 -35
-12 -67 -26 -73 -31 -5 -5 -12 -9 -16 -9 -6 0 -304 359 -419 504 -13 17 -66
81 -117 143 -51 61 -93 115 -93 120 0 4 37 21 82 37 l82 29 33 -37 c18 -20 39
-36 46 -36 6 0 46 13 87 29 41 16 118 46 170 66 52 20 97 39 99 40 5 6 -191
246 -199 243 -3 -2 -86 -32 -183 -68 -97 -36 -177 -69 -177 -74 0 -4 14 -24
30 -43 17 -18 30 -37 30 -42 0 -4 -36 -21 -80 -38 -61 -23 -83 -28 -94 -19 -7
6 -53 61 -102 121 -98 122 -215 266 -377 464 -60 73 -107 134 -105 136 1 2 40
17 86 35 73 28 85 30 95 17 7 -9 35 -45 62 -81 28 -36 55 -66 61 -66 6 0 29 7
50 16 22 9 66 27 99 39 51 19 222 84 565 215 41 16 85 31 98 35 12 3 22 10 22
14 0 4 -27 39 -60 79 -33 39 -60 75 -60 79 0 9 132 60 159 62 7 1 23 -11 35
-26z"/>
<path d="M3524 12008 c-7 -11 66 -9 91 2 14 7 5 9 -33 7 -30 -1 -56 -5 -58 -9z"/>
<path d="M14503 8673 c-92 -116 -91 -114 -81 -180 10 -62 9 -64 -42 -83 -130
-49 -325 -208 -442 -361 -206 -270 -304 -581 -264 -839 8 -52 12 -98 10 -102
-3 -4 -48 13 -102 38 -180 84 -243 108 -258 98 -7 -5 -93 -67 -191 -138 -515
-375 -617 -449 -718 -521 -60 -43 -112 -80 -114 -82 -10 -7 84 -296 99 -306 9
-5 63 -28 121 -51 76 -31 107 -49 116 -67 13 -26 153 -461 153 -476 0 -5 -34
-33 -76 -63 -41 -29 -77 -57 -80 -62 -7 -11 96 -350 110 -366 15 -15 412 -155
446 -156 19 -1 177 108 572 394 301 217 547 402 547 410 2 31 -82 266 -100
281 -10 9 -78 40 -151 69 -73 29 -138 58 -144 64 -13 12 -134 372 -134 397 0
16 141 129 161 129 5 0 22 -12 37 -26 78 -74 209 -140 342 -173 187 -45 440
-46 593 0 166 49 342 167 478 321 157 178 231 329 248 508 6 64 6 65 51 89 25
14 78 40 119 57 65 29 81 41 127 101 30 37 54 74 54 80 0 7 -35 57 -78 110
-77 96 -251 326 -266 350 -4 8 6 29 25 52 19 25 29 46 25 56 -12 31 -148 215
-159 215 -7 0 -70 7 -142 15 -71 8 -133 15 -136 15 -4 0 -19 19 -35 43 -58 86
-148 212 -157 218 -4 3 -104 9 -220 12 -117 4 -226 9 -243 13 -29 6 -35 1
-101 -83z m238 -228 c66 -99 124 -189 130 -201 9 -17 5 -29 -28 -72 -21 -29
-45 -52 -54 -52 -9 0 -43 12 -75 26 -179 79 -327 56 -423 -65 -50 -65 -65
-121 -58 -224 8 -123 64 -266 168 -434 187 -299 363 -412 466 -299 45 49 48
119 8 219 -23 58 -141 247 -155 247 -4 0 -32 -36 -64 -79 -81 -114 -78 -112
-121 -45 -20 32 -39 62 -41 69 -3 6 51 83 118 171 345 451 482 624 493 624 14
0 95 -114 95 -133 0 -7 -23 -40 -51 -74 l-51 -62 23 -33 c36 -51 176 -235 241
-315 32 -40 58 -79 58 -87 0 -31 -46 -67 -145 -114 -57 -28 -124 -64 -149 -82
-42 -28 -46 -34 -46 -73 0 -56 -33 -174 -75 -264 -116 -251 -380 -443 -610
-443 -117 0 -224 42 -346 136 -72 55 -104 96 -128 164 -13 35 -28 57 -48 70
-77 46 -117 314 -77 508 48 232 194 475 386 639 104 89 272 173 346 173 27 0
27 -1 1 118 -8 41 -10 68 -4 76 6 7 24 31 40 54 17 23 36 41 44 39 8 -1 67
-83 132 -182z m-1382 -1404 c11 -36 21 -73 21 -82 0 -10 -42 -49 -104 -95
l-104 -77 18 -61 c10 -34 52 -164 93 -291 65 -198 98 -301 148 -462 6 -18 15
-33 20 -33 5 0 52 32 104 70 52 39 99 70 104 70 8 0 61 -137 61 -158 0 -9 -47
-44 -455 -339 -93 -68 -231 -168 -307 -223 -75 -55 -140 -100 -145 -100 -5 0
-17 28 -27 63 -33 115 -35 107 39 160 37 27 74 51 82 54 21 8 17 24 -70 293
-41 129 -99 309 -127 400 -28 91 -55 169 -59 173 -4 4 -42 -20 -83 -53 -42
-33 -78 -60 -81 -60 -5 0 -19 43 -53 161 -3 12 57 61 228 184 410 296 592 428
628 457 19 15 37 24 41 20 3 -4 16 -36 28 -71z"/>
<path d="M11834 6244 l-111 -44 -19 -56 -19 -56 -50 9 c-95 16 -293 8 -389
-15 -324 -80 -575 -301 -616 -544 -20 -114 16 -264 85 -354 38 -49 35 -54 -41
-78 -18 -5 -22 -2 -27 21 -3 16 -63 107 -132 203 -69 96 -154 214 -188 262
l-62 88 -45 0 c-25 0 -94 -4 -155 -10 -60 -5 -200 -14 -310 -20 -110 -6 -301
-17 -425 -25 -124 -8 -348 -22 -499 -30 -150 -8 -277 -18 -282 -21 -5 -3 -9
-14 -9 -24 0 -11 -13 -66 -29 -122 -16 -57 -32 -115 -35 -129 -4 -20 8 -44 62
-120 38 -52 72 -100 76 -107 7 -11 -40 -209 -119 -508 -2 -7 -45 -14 -109 -19
l-106 -7 -15 -51 c-8 -29 -26 -101 -41 -162 -30 -125 -44 -151 -44 -83 0 93
-76 334 -133 426 -14 21 -47 57 -73 80 -26 23 -45 44 -43 45 2 2 21 14 42 27
52 31 111 108 133 172 37 108 15 257 -62 427 -49 105 -102 171 -181 224 -107
71 -207 108 -528 198 -121 33 -249 69 -285 80 -36 10 -96 28 -135 38 -467 133
-570 161 -580 157 -6 -2 -48 -59 -94 -127 l-83 -123 35 -125 c25 -88 33 -131
26 -143 -32 -60 -282 -418 -292 -418 -7 0 -48 11 -91 25 -43 14 -84 25 -90 25
-13 -1 -20 -11 -138 -184 -59 -87 -88 -138 -85 -151 6 -27 143 -421 151 -434
4 -6 26 -15 49 -21 61 -17 1100 -312 1114 -317 6 -2 23 16 38 42 22 37 30 43
41 34 8 -6 14 -15 14 -20 0 -18 86 -132 139 -185 127 -127 258 -190 450 -219
122 -19 172 -19 263 0 86 19 165 53 219 96 52 41 120 139 151 217 14 35 28 64
31 65 6 2 25 -21 201 -246 l99 -126 41 4 c23 3 122 10 221 15 99 5 326 19 505
30 179 11 480 29 670 40 190 11 376 24 414 28 l69 7 79 294 78 295 -25 36
c-29 41 -31 68 -11 131 8 24 36 124 62 222 26 97 51 177 56 177 4 0 8 -22 8
-49 0 -66 18 -486 26 -586 l5 -80 77 -61 c42 -34 128 -103 190 -154 l112 -92
83 32 c202 79 189 70 210 136 11 32 24 62 30 65 5 4 24 3 41 -3 44 -13 298
-12 381 2 208 35 431 119 555 209 171 125 249 246 258 403 8 162 -48 323 -154
438 l-55 58 -15 314 c-10 215 -19 317 -27 325 -26 25 -400 273 -411 272 -6 0
-61 -21 -122 -45z m109 -216 c4 -79 7 -191 7 -249 l0 -106 -47 -18 c-27 -10
-53 -21 -58 -26 -15 -11 -29 1 -50 41 -28 54 -124 143 -190 175 -54 27 -70 30
-160 30 -94 0 -104 -2 -155 -31 -70 -40 -95 -73 -94 -125 2 -50 40 -94 92
-104 21 -4 114 -7 209 -6 94 1 202 -3 240 -9 130 -21 249 -94 294 -183 25 -49
59 -179 59 -226 0 -48 -26 -145 -53 -199 -65 -132 -273 -269 -495 -327 -136
-36 -337 -38 -467 -4 -22 5 -47 11 -55 12 -10 1 -24 -25 -45 -81 l-30 -84 -78
-30 c-43 -16 -80 -28 -83 -26 -6 7 -22 229 -30 419 l-6 165 73 27 c41 15 79
27 85 27 6 0 23 -22 37 -48 38 -69 137 -173 190 -200 69 -35 157 -48 222 -35
149 32 223 158 144 248 -40 45 -106 65 -218 65 -142 1 -315 17 -357 35 -58 24
-108 78 -145 159 -30 64 -34 80 -34 161 0 81 3 97 32 158 60 127 206 251 369
314 131 51 169 58 324 58 133 0 150 -2 206 -26 l61 -26 34 86 34 85 55 23 c30
12 60 22 66 23 7 0 13 -49 17 -142z m-5449 -57 c39 -10 217 -60 396 -111 179
-51 364 -103 412 -116 335 -91 482 -166 529 -269 57 -124 -19 -296 -156 -355
-24 -10 -77 -24 -119 -31 -65 -11 -94 -11 -203 4 -149 20 -143 20 -143 7 0 -6
12 -15 28 -20 123 -44 191 -125 206 -245 7 -51 5 -67 -34 -238 -24 -112 -21
-162 15 -201 30 -32 90 -44 124 -25 39 22 47 57 29 131 -24 103 9 187 93 231
51 27 144 18 201 -20 66 -44 90 -93 85 -178 -8 -162 -124 -283 -302 -316 -88
-17 -243 -5 -348 26 -203 59 -341 163 -417 315 -34 67 -39 208 -11 317 27 105
27 176 1 213 -21 29 -94 65 -111 54 -14 -8 -181 -265 -177 -270 2 -2 46 -14
98 -27 52 -13 95 -28 97 -33 6 -17 -96 -154 -110 -149 -6 3 -50 15 -97 29
-709 199 -886 250 -893 256 -11 9 85 150 103 150 8 0 51 -11 95 -25 44 -14 85
-25 91 -25 6 0 31 30 55 68 43 64 91 135 332 487 61 88 112 167 114 175 3 11
-10 18 -49 28 -103 24 -128 33 -128 47 0 8 21 44 46 80 32 46 51 64 62 60 8
-3 47 -14 86 -24z m3646 -640 c-32 -129 -62 -237 -67 -241 -4 -4 -54 -10 -110
-14 l-103 -6 0 37 c0 21 -7 69 -15 107 -27 130 -55 148 -224 147 -64 -1 -137
-4 -162 -7 l-47 -6 -41 -148 c-23 -81 -41 -152 -41 -158 0 -16 139 -3 175 17
26 14 60 57 100 125 14 23 125 36 125 14 0 -16 -69 -311 -103 -438 l-22 -85
-58 -5 c-32 -3 -62 -3 -66 0 -4 3 -11 33 -14 67 -4 35 -13 78 -21 97 -16 38
-35 44 -113 38 -41 -4 -42 -5 -57 -55 -30 -101 -87 -329 -83 -334 7 -6 226 16
282 28 143 32 233 108 337 285 l60 103 77 5 c42 4 95 8 119 11 47 5 50 -1 32
-65 -6 -19 -31 -114 -57 -210 -69 -263 -72 -273 -80 -281 -5 -4 -91 -12 -193
-18 -1026 -63 -1334 -82 -1387 -87 -42 -4 -63 -3 -63 4 0 15 26 111 38 143 14
35 28 39 127 39 46 0 86 4 89 9 5 8 47 164 182 675 24 92 44 173 44 179 0 7
-33 8 -100 4 -75 -5 -100 -3 -100 6 0 7 10 46 23 87 l23 75 54 7 c30 4 210 17
400 28 721 42 878 51 980 58 58 4 108 5 112 2 4 -3 -19 -111 -52 -239z"/>
<path d="M6958 5458 c-144 -219 -143 -209 -18 -216 112 -6 173 25 238 120 87
129 75 222 -35 269 -25 10 -48 19 -52 19 -4 0 -64 -87 -133 -192z"/>
</g>
</svg>
